# xmcd
#
# Track frame offsets: 
#        150
#        12437
#        24545
#        39820
#        51272
#        63370
#        75072
#        88165
#        98467
#        111760
#        126155
#        138987
#
# Disc length: 1997 seconds
#
# Revision: 2
# Processed by: cddbd v1.5.2PL0 Copyright (c) Steve Scherf et al.
# Submitted via: ExactAudioCopy v1.0b3
#
DISCID=8907cb0c
DTITLE=Louvin Brothers - A Tribute To The Delmore Brothers
DYEAR=1960
DGENRE=Country
TTITLE0=Weary Lonesome Blues
TTITLE1=Midnight Special
TTITLE2=Blues Stay Away From Me
TTITLE3=Sand Mountain Blues
TTITLE4=Southern Moon
TTITLE5=Nashville Blues
TTITLE6=Brown's Ferry Blues
TTITLE7=When It's Time For The Whippoorwill To Sing
TTITLE8=Freight Train Blues
TTITLE9=Put Me On The Trail To Carolina
TTITLE10=Gonna Lay Down My Old Guitar
TTITLE11=The Last Old Shovel
EXTD=
EXTT0=
EXTT1=
EXTT2=
EXTT3=
EXTT4=
EXTT5=
EXTT6=
EXTT7=
EXTT8=
EXTT9=
EXTT10=
EXTT11=
PLAYORDER=
